HIERARCHY
ROOT Hips
{
	OFFSET 0.000000 0.000000 0.000000
	CHANNELS 6 Xposition Yposition Zposition Zrotation Yrotation Xrotation 
	JOINT LHipJoint
	{
		OFFSET 0.000000 0.000000 0.000000
		CHANNELS 3 Zrotation Yrotation Xrotation
		JOINT LeftUpLeg
		{
			OFFSET 1.363060 -1.794630 0.839290
			CHANNELS 3 Zrotation Yrotation Xrotation
			JOINT LeftLeg
			{
				OFFSET 2.448110 -6.726130 0.000000
				CHANNELS 3 Zrotation Yrotation Xrotation
				JOINT LeftFoot
				{
					OFFSET 2.562200 -7.039590 0.000000
					CHANNELS 3 Zrotation Yrotation Xrotation
					JOINT LeftToeBase
					{
						OFFSET 0.157640 -0.433110 2.322550
						CHANNELS 3 Zrotation Yrotation Xrotation
						End Site
						{
							OFFSET 0.000000 0.000000 0.000000
						}
					}
				}
			}
		}
	}
	JOINT RHipJoint
	{
		OFFSET 0.000000 0.000000 0.000000
		CHANNELS 3 Zrotation Yrotation Xrotation
		JOINT RightUpLeg
		{
			OFFSET -1.305520 -1.794630 0.839290
			CHANNELS 3 Zrotation Yrotation Xrotation
			JOINT RightLeg
			{
				OFFSET -2.542530 -6.985550 0.000000
				CHANNELS 3 Zrotation Yrotation Xrotation
				JOINT RightFoot
				{
					OFFSET -2.568260 -7.056230 0.000000
					CHANNELS 3 Zrotation Yrotation Xrotation
					JOINT RightToeBase
					{
						OFFSET -0.164730 -0.452590 2.363150
						CHANNELS 3 Zrotation Yrotation Xrotation
						End Site
						{
							OFFSET 0.000000 0.000000 0.000000
						}
					}
				}
			}
		}
	}
	JOINT LowerBack
	{
		OFFSET 0.000000 0.000000 0.000000
		CHANNELS 3 Zrotation Yrotation Xrotation
		JOINT Spine
		{
			OFFSET 0.028270 2.035590 -0.193380
			CHANNELS 3 Zrotation Yrotation Xrotation
			JOINT Spine1
			{
				OFFSET 0.056720 2.048850 -0.042750
				CHANNELS 3 Zrotation Yrotation Xrotation
				JOINT Neck
				{
					OFFSET 0.000000 0.000000 0.000000
					CHANNELS 3 Zrotation Yrotation Xrotation
					JOINT Neck1
					{
						OFFSET -0.054170 1.746240 0.172020
						CHANNELS 3 Zrotation Yrotation Xrotation
						JOINT Head
						{
							OFFSET 0.104070 1.761360 -0.123970
							CHANNELS 3 Zrotation Yrotation Xrotation
							End Site
							{
								OFFSET 0.000000 0.000000 0.000000
							}
						}
					}
				}
				JOINT LeftShoulder
				{
					OFFSET 0.000000 0.000000 0.000000
					CHANNELS 3 Zrotation Yrotation Xrotation
					JOINT LeftArm
					{
						OFFSET 3.362410 1.200890 -0.311210
						CHANNELS 3 Zrotation Yrotation Xrotation
						JOINT LeftForeArm
						{
							OFFSET 4.983000 -0.000000 -0.000000
							CHANNELS 3 Zrotation Yrotation Xrotation
							JOINT LeftHand
							{
								OFFSET 3.483560 -0.000000 -0.000000
								CHANNELS 3 Zrotation Yrotation Xrotation
								JOINT LeftFingerBase
								{
									OFFSET 0.000000 0.000000 0.000000
									CHANNELS 3 Zrotation Yrotation Xrotation
									JOINT LeftHandIndex1
									{
										OFFSET 0.715260 -0.000000 -0.000000
										CHANNELS 3 Zrotation Yrotation Xrotation
										End Site
										{
											OFFSET 0.000000 0.000000 0.000000
										}
									}
								}
								JOINT LThumb
								{
									OFFSET 0.000000 0.000000 0.000000
									CHANNELS 3 Zrotation Yrotation Xrotation
									End Site
									{
										OFFSET 0.000000 0.000000 0.000000
									}
								}
							}
						}
					}
				}
				JOINT RightShoulder
				{
					OFFSET 0.000000 0.000000 0.000000
					CHANNELS 3 Zrotation Yrotation Xrotation
					JOINT RightArm
					{
						OFFSET -3.136600 1.374050 -0.404650
						CHANNELS 3 Zrotation Yrotation Xrotation
						JOINT RightForeArm
						{
							OFFSET -5.241900 -0.000000 -0.000000
							CHANNELS 3 Zrotation Yrotation Xrotation
							JOINT RightHand
							{
								OFFSET -3.444170 -0.000000 -0.000000
								CHANNELS 3 Zrotation Yrotation Xrotation
								JOINT RightFingerBase
								{
									OFFSET 0.000000 0.000000 0.000000
									CHANNELS 3 Zrotation Yrotation Xrotation
									JOINT RightHandIndex1
									{
										OFFSET -0.622530 -0.000000 -0.000000
										CHANNELS 3 Zrotation Yrotation Xrotation
										End Site
										{
											OFFSET 0.000000 0.000000 0.000000
										}
									}
								}
								JOINT RThumb
								{
									OFFSET 0.000000 0.000000 0.000000
									CHANNELS 3 Zrotation Yrotation Xrotation
									End Site
									{
										OFFSET 0.000000 0.000000 0.000000
									}
								}
							}
						}
					}
				}
			}
		}
	}
}
MOTION
Frames: 6
Frame Time: 0.008333
20.887427 18.907075 0.883504 -0.477725 -1.663389 10.718116 -15.720870 2.216232 3.881037 7.064448 -2.809628 -24.555283 -20.747854 -31.116962 47.724884 -25.664402 39.709201 -25.831733 -0.169120 -1.156868 -0.185859 13.159871 -2.933450 4.626050 -9.210767 8.321139 -20.917535 5.903326 14.745921 31.329681 27.202421 -22.774568 -18.196258 0.046026 0.159595 -0.292166 1.570899 -0.102413 4.970297 0.788998 -0.027302 -4.124883 -1.485049 -0.119823 -1.026791 -2.575766 0.015246 -5.791667 9.171821 0.271630 28.630866 4.326165 3.292796 -2.683016 -10.501140 -5.580320 0.897537 -71.571630 -8.733805 43.297556 3.914885 -0.444206 -2.841487 7.438458 -5.124351 -3.431845 -2.648374 1.902045 -0.000000 0.000000 0.000000 0.000000 0.000000 0.000000 0.000000 11.590786 5.318364 4.537482 66.622149 12.637443 40.007257 -1.117181 0.209495 0.380820 -6.384293 4.987878 -0.147549 2.459216 -1.849214 -0.000000 0.000000 0.000000 0.000000 0.000000 0.000000 0.000000
20.879102 18.911748 0.901537 -0.464966 -1.713455 10.743611 -15.764078 2.304566 3.924273 7.091603 -2.886163 -24.383599 -19.825928 -30.742121 46.733989 -25.697785 39.171319 -25.213037 -0.163979 -1.161872 -0.145325 13.187710 -2.997778 4.666749 -9.142246 8.160778 -20.899697 5.216859 14.026971 30.603013 27.005386 -21.967817 -17.146024 0.039236 0.136253 -0.273001 1.568838 -0.110642 4.896427 0.789898 -0.036049 -4.128108 -1.498937 -0.128035 -1.024913 -2.605986 -0.012674 -5.790230 9.055509 0.263629 28.482318 4.601360 3.189655 -2.146174 -10.441667 -5.575337 0.837441 -71.590447 -8.524369 43.394362 4.009854 -0.544751 -2.988890 7.531676 -5.191903 -3.590425 -2.674103 1.924896 -0.000000 0.000000 0.000000 0.000000 0.000000 0.000000 0.000000 11.547195 5.331298 4.602406 66.531701 12.669853 39.110968 -1.040138 0.296838 0.885904 -6.966025 4.873963 0.325018 2.701313 -1.769869 -0.000000 0.000000 0.000000 0.000000 0.000000 0.000000 0.000000
20.870433 18.916756 0.917316 -0.446590 -1.738154 10.757748 -15.802687 2.367277 3.921338 6.916728 -2.514415 -24.386090 -19.510553 -30.971276 46.549010 -25.575787 38.932512 -24.729169 -0.130835 -0.972595 -0.075664 13.200478 -3.026910 4.695517 -9.130717 8.145305 -20.791893 4.476603 12.950895 29.729911 26.748289 -21.056446 -16.046101 -0.007131 -0.022453 -0.132340 1.549292 -0.108523 4.848841 0.789132 -0.032800 -4.128331 -1.510020 -0.125335 -0.994159 -2.598455 -0.040289 -5.813894 9.010522 0.287722 28.490585 4.639329 3.199288 -2.156736 -10.421054 -5.576476 0.893499 -71.523510 -8.482842 43.062334 3.967541 -0.685403 -2.823987 7.406670 -5.226687 -3.415346 -2.638847 1.917996 -0.000000 0.000000 0.000000 0.000000 0.000000 0.000000 0.000000 11.507649 5.363589 4.594326 66.574738 12.577546 39.001720 -1.059121 0.372454 0.893178 -6.944760 4.816806 0.340409 2.693352 -1.739670 -0.000000 0.000000 0.000000 0.000000 0.000000 0.000000 0.000000
20.861481 18.921216 0.933639 -0.432385 -1.735199 10.782945 -15.852173 2.453894 3.929520 6.810989 -2.331127 -24.311893 -18.838051 -30.939821 45.950159 -25.610010 38.491260 -24.188796 -0.120232 -0.879210 -0.081691 13.220133 -3.070881 4.727080 -9.118287 8.095963 -20.717801 3.711078 11.785691 28.837866 26.467198 -20.057481 -14.787345 0.001081 0.006610 -0.243493 1.552776 -0.125213 4.839858 0.790022 -0.049273 -4.130154 -1.542752 -0.142321 -1.024232 -2.578880 -0.067049 -5.805807 8.940523 0.296684 28.493995 4.652225 3.191667 -2.305300 -10.355615 -5.467851 0.960336 -71.507495 -8.465026 43.127567 4.003686 -0.815516 -2.852318 7.463817 -5.264578 -3.447241 -2.660784 1.920585 -0.000000 0.000000 0.000000 0.000000 0.000000 0.000000 0.000000 11.389358 5.266700 4.465859 66.800503 12.517977 39.996660 -1.309417 0.383199 0.151868 -7.827879 4.957392 -0.481478 2.990794 -1.823832 -0.000000 0.000000 0.000000 0.000000 0.000000 0.000000 0.000000
20.851180 18.925808 0.949809 -0.417728 -1.752609 10.824889 -15.863645 2.509425 3.943288 6.777741 -2.328479 -24.175071 -18.250793 -30.820269 45.308507 -25.670418 38.216823 -23.752843 -0.113246 -0.846755 -0.060934 13.253565 -3.087869 4.750144 -9.118672 8.019792 -20.686098 3.600214 11.710805 28.631071 26.419321 -19.943229 -14.579831 0.003929 0.016958 -0.299111 1.502983 -0.129678 4.800651 0.790173 -0.050351 -4.131144 -1.510794 -0.142637 -1.073492 -2.580766 -0.031111 -5.761249 9.035313 0.338450 28.524574 4.560230 3.275785 -2.315766 -10.305831 -5.494873 0.894956 -71.495625 -8.215440 43.199812 4.080088 -1.075856 -2.901095 7.535793 -5.315463 -3.495541 -2.685278 1.919198 -0.000000 0.000000 0.000000 0.000000 0.000000 0.000000 0.000000 11.373251 5.259615 4.430585 66.804410 12.396347 39.868866 -1.189782 0.485189 0.447029 -7.187307 4.913424 -0.134795 2.762200 -1.792107 -0.000000 0.000000 0.000000 0.000000 0.000000 0.000000 0.000000
20.843016 18.930101 0.967612 -0.389963 -1.763137 10.891923 -15.872663 2.497019 3.977894 6.787894 -2.370148 -24.109433 -18.691447 -31.320799 45.645769 -25.761520 38.861477 -24.134364 -0.116227 -0.805365 -0.116595 13.245980 -3.081584 4.766093 -9.147704 8.057702 -20.612131 3.423740 11.406476 28.294760 26.366311 -19.786823 -14.225506 -0.008498 -0.025368 -0.283082 1.506757 -0.138935 4.726064 0.791188 -0.061231 -4.132592 -1.524364 -0.153312 -1.078308 -2.571821 -0.034812 -5.761899 9.011913 0.281883 28.538540 4.329389 3.237476 -2.346547 -10.264723 -5.468319 0.915999 -71.492423 -8.171266 43.046159 4.080154 -1.159139 -2.841835 7.572328 -5.403034 -3.448780 -2.703999 1.942434 -0.000000 0.000000 0.000000 0.000000 0.000000 0.000000 0.000000 11.308911 5.231202 4.393011 66.875710 12.310534 39.924179 -1.216628 0.552818 0.569850 -6.432348 4.905278 0.047683 2.474242 -1.788464 -0.000000 0.000000 0.000000 0.000000 0.000000 0.000000 0.000000
